<?xml version="1.0" standalone="no"?>
<!DOCTYPE svg PUBLIC "-//W3C//DTD SVG 20010904//EN"
 "http://www.w3.org/TR/2001/REC-SVG-20010904/DTD/svg10.dtd">
<svg version="1.0" xmlns="http://www.w3.org/2000/svg"
 width="2400.000000pt" height="800.000000pt" viewBox="0 0 2400.000000 800.000000"
 preserveAspectRatio="xMidYMid meet">

<g transform="translate(0.000000,800.000000) scale(0.100000,-0.100000)"
fill="#000000" stroke="none">
<path d="M0 4000 l0 -4000 12000 0 12000 0 0 4000 0 4000 -12000 0 -12000 0 0
-4000z m11982 2590 c31 -63 96 -195 144 -293 48 -97 91 -176 96 -175 4 2 50
90 102 196 52 106 98 194 103 195 4 1 26 -34 47 -78 22 -44 169 -343 328 -664
158 -321 288 -587 288 -591 0 -13 -849 -22 -1520 -15 -366 4 -666 8 -666 8 -4
5 292 596 298 597 3 0 31 -52 62 -115 30 -63 59 -115 64 -115 5 0 24 33 42 73
19 39 143 293 276 563 133 270 245 500 249 513 3 12 12 21 18 19 7 -2 38 -55
69 -118z m-2079 -1165 c-3 -11 -5572 -25 -5587 -13 -4 3 -5 11 -2 17 10 15
5592 11 5589 -4z m9762 4 c4 -6 5 -12 3 -15 -6 -5 -5589 -6 -5595 0 -3 3 -2 9
2 15 9 15 5581 15 5590 0z m-9767 -111 l-3 -33 -2787 -3 -2788 -2 0 35 0 35
2791 0 2790 0 -3 -32z m9762 -3 l0 -35 -2790 0 -2790 0 0 35 0 35 2790 0 2790
0 0 -35z m-9755 -100 c0 -7 -939 -11 -2792 -13 -2480 -2 -2793 0 -2793 13 0
13 313 15 2793 13 1853 -2 2792 -6 2792 -13z m9749 9 c9 -3 16 -10 16 -15 0
-5 -1162 -9 -2795 -9 -2478 0 -2795 2 -2795 15 0 13 315 15 2779 15 1529 0
2786 -3 2795 -6z m-3621 -896 c100 -84 310 -260 467 -392 157 -131 336 -282
398 -335 63 -53 119 -97 125 -99 9 -2 12 119 12 475 l0 478 170 0 170 0 5
-843 c3 -464 2 -846 -1 -848 -6 -3 -326 260 -994 818 l-190 159 -3 -475 -2
-476 -23 -5 c-12 -3 -89 -4 -172 -3 l-150 3 -3 848 c-1 466 1 847 4 847 3 0
88 -69 187 -152z m-7516 -258 c1 -212 6 -386 10 -387 5 -2 184 172 398 387
l390 390 227 0 c126 0 228 -1 228 -3 0 -2 -182 -185 -405 -407 -223 -222 -405
-409 -405 -415 0 -6 187 -197 415 -425 228 -228 415 -418 415 -422 0 -4 -102
-8 -227 -8 l-227 0 -312 311 c-172 171 -317 310 -322 308 -6 -2 -49 -42 -96
-88 l-86 -84 0 -218 c0 -218 0 -219 -22 -224 -13 -3 -90 -4 -173 -3 l-150 3
-3 825 c-1 454 0 831 3 838 3 10 44 12 172 10 l168 -3 2 -385z m2223 361 c119
-36 204 -86 295 -176 93 -91 154 -196 181 -311 24 -102 15 -283 -19 -385 -52
-154 -162 -293 -279 -354 -32 -17 -58 -32 -58 -35 0 -3 76 -87 170 -185 93
-99 169 -186 170 -192 0 -10 -51 -13 -221 -13 l-222 0 -41 43 c-23 23 -84 88
-137 145 l-96 102 -91 0 -91 0 -3 -142 -3 -143 -167 -3 -166 -2 -6 27 c-4 23
-2 1640 3 1652 0 1 160 1 354 -2 326 -4 358 -6 427 -26z m1624 13 c12 -31 7
-282 -6 -290 -13 -8 -102 -11 -366 -13 l-173 -1 3 -152 3 -153 310 -5 310 -5
3 -152 3 -153 -316 0 -315 0 0 -210 0 -210 343 -2 342 -3 8 -149 c6 -117 5
-151 -5 -158 -11 -7 -1027 -12 -1029 -5 -4 13 -9 1651 -5 1662 5 13 68 15 445
15 391 0 440 -2 445 -16z m746 -375 c0 -283 3 -390 11 -387 6 2 185 178 398
391 l386 387 228 0 c125 0 227 -3 227 -8 0 -4 -182 -189 -405 -412 l-405 -405
415 -415 c228 -228 415 -421 415 -428 0 -9 -52 -12 -223 -12 l-222 0 -310 310
c-170 171 -317 310 -326 310 -8 0 -55 -40 -103 -89 l-87 -89 1 -211 c1 -116
-1 -215 -5 -221 -4 -6 -67 -10 -165 -10 -142 0 -160 2 -168 18 -5 11 -8 1584
-2 1660 0 1 77 2 170 2 l170 0 0 -391z m2328 234 c3 -153 3 -153 -20 -154 -52
-4 -183 -7 -345 -8 l-173 -1 0 -155 0 -155 313 -2 312 -3 0 -150 0 -150 -312
-3 -313 -2 0 -210 0 -210 343 -2 342 -3 3 -152 c2 -151 2 -153 -20 -158 -13
-3 -246 -4 -518 -3 l-495 3 -3 838 -2 837 442 -2 443 -3 3 -152z m-7390 -1767
c1 -61 -1 -112 -7 -115 -5 -3 -377 -6 -828 -6 l-818 0 -3 104 c-1 58 0 111 2
118 5 11 153 13 828 11 l823 -3 3 -109z m11818 -508 c4 -6 3 -13 -2 -15 -5 -2
-3554 -4 -7886 -5 -5939 -2 -7879 0 -7882 9 -3 6 -2 14 1 17 4 3 3551 6 7884
6 6083 0 7879 -3 7885 -12z m-1 -113 l0 -30 -7880 0 -7880 0 -3 33 -3 32 7883
-2 7883 -3 0 -30z m-11 -91 c9 -3 16 -10 16 -15 0 -5 -3265 -9 -7885 -9 -7002
0 -7885 2 -7885 15 0 13 881 15 7869 15 4328 0 7876 -3 7885 -6z"/>
<path d="M10353 4142 l-53 -3 0 -375 0 -374 118 0 c185 0 281 31 364 117 60
61 81 122 86 239 3 73 0 117 -12 155 -32 112 -113 194 -221 224 -52 14 -193
23 -282 17z"/>
</g>
</svg>
